<svg width="19.000000" height="15.000000" viewBox="0 0 19 15" fill="none" xmlns="http://www.w3.org/2000/svg" xmlns:xlink="http://www.w3.org/1999/xlink">
	<desc>
			Created with Pixso.
	</desc>
	<defs/>
	<path id="J*" d="M6.25 9.76L6.25 -0.55L8.43 -0.55L8.43 9.76C8.43 12.56 6.68 14.2 4.01 14.2C1.54 14.2 -0.3 12.82 -0.3 10.36L1.88 10.36C1.89 11.57 2.78 12.33 4.07 12.33C5.46 12.33 6.24 11.44 6.25 9.76ZM15.62 7.63L14.08 7.63L14.21 4.63L11.68 6.26L10.91 4.91L13.6 3.54L10.91 2.17L11.68 0.82L14.21 2.45L14.08 -0.55L15.62 -0.55L15.49 2.45L18.01 0.82L18.79 2.17L16.1 3.54L18.79 4.91L18.01 6.26L15.49 4.63L15.62 7.63Z" fill="#FAFAFA" fill-opacity="1.000000" fill-rule="evenodd"/>
</svg>
