<svg aria-hidden="true" style="position: absolute; width: 0; height: 0; overflow: hidden;" version="1.1" xmlns="http://www.w3.org/2000/svg" xmlns:xlink="http://www.w3.org/1999/xlink">
<defs>
<symbol id="icon-swiper-left" viewBox="0 0 32 32">
<path stroke-linejoin="round" stroke-linecap="round" stroke-miterlimit="4" stroke-width="2" d="M26.666 16h-21.333"></path>
<path stroke-linejoin="round" stroke-linecap="round" stroke-miterlimit="4" stroke-width="2" d="M13.334 24l-8-8 8-8"></path>
</symbol>
<symbol id="icon-swiper_right_icon" viewBox="0 0 32 32">
<path fill="none" stroke="#3b3b3b" style="stroke: var(--color1, #3b3b3bs)" stroke-linejoin="round" stroke-linecap="round" stroke-miterlimit="4" stroke-width="2" d="M5.333 16h21.333"></path>
<path fill="none" stroke="#3b3b3b" style="stroke: var(--color1, #3b3b3bs)" stroke-linejoin="round" stroke-linecap="round" stroke-miterlimit="4" stroke-width="2" d="M18.667 8l8 8-8 8"></path>
</symbol>
<symbol id="icon-urgen_execution_icon" viewBox="0 0 32 32">
<path fill="none" stroke="#fafafa" style="stroke: var(--color1, #fafafa)" stroke-linejoin="round" stroke-linecap="round" stroke-miterlimit="4" stroke-width="2.9091" d="M24.964 1.455h-17.927c-0.673 0-1.218 0.545-1.218 1.218 0 3.877 1.54 7.595 4.281 10.336l1.773 1.773c0.176 0.176 0.264 0.264 0.327 0.349 0.385 0.516 0.385 1.223 0 1.739-0.063 0.084-0.151 0.173-0.327 0.349l-1.773 1.773c-2.741 2.741-4.281 6.459-4.281 10.336 0 0.673 0.545 1.218 1.218 1.218h17.927c0.673 0 1.218-0.545 1.218-1.218 0-3.877-1.54-7.595-4.281-10.336l-1.773-1.773c-0.176-0.176-0.264-0.264-0.327-0.349-0.385-0.516-0.385-1.223 0-1.739 0.063-0.085 0.151-0.173 0.327-0.349l1.773-1.773c2.741-2.741 4.281-6.459 4.281-10.336 0-0.673-0.545-1.218-1.218-1.218z"></path>
</symbol>
<symbol id="icon-art_icon" viewBox="0 0 32 32">
<path fill="none" stroke="#fafafa" style="stroke: var(--color1, #fafafa)" stroke-linejoin="round" stroke-linecap="round" stroke-miterlimit="4" stroke-width="2.7826" d="M2.087 29.217c2.783 0 6.411 0.475 8.313-1.426s1.902-4.985 0-6.887c-1.902-1.902-4.985-1.902-6.887 0s0 5.53-1.426 8.313z"></path>
<path fill="none" stroke="#fafafa" style="stroke: var(--color1, #fafafa)" stroke-linejoin="round" stroke-linecap="round" stroke-miterlimit="4" stroke-width="2.7826" d="M10.435 20.869c-0.684-0.684-1.026-1.026-1.219-1.384-0.463-0.858-0.444-1.897 0.053-2.737 0.207-0.35 0.562-0.679 1.271-1.336l13.729-12.713c1.209-1.12 3.087-1.084 4.253 0.082s1.202 3.043 0.082 4.253l-12.713 13.729c-0.657 0.71-0.985 1.064-1.336 1.271-0.84 0.496-1.879 0.516-2.737 0.053-0.358-0.193-0.7-0.535-1.384-1.219z"></path>
</symbol>
<symbol id="icon-communication_icon" viewBox="0 0 32 32">
<path fill="none" stroke="#fafafa" style="stroke: var(--color1, #fafafa)" stroke-linejoin="round" stroke-linecap="round" stroke-miterlimit="4" stroke-width="2.6667" d="M8.126 14.972c-0.083-0.534-0.126-1.081-0.126-1.638 0-5.891 4.807-10.667 10.737-10.667s10.737 4.776 10.737 10.667c0 1.331-0.245 2.605-0.693 3.779-0.093 0.244-0.14 0.366-0.161 0.461s-0.029 0.161-0.031 0.257c-0.002 0.097 0.011 0.205 0.037 0.42l0.537 4.36c0.058 0.472 0.087 0.708 0.009 0.88-0.069 0.15-0.191 0.27-0.343 0.335-0.173 0.075-0.409 0.040-0.879-0.029l-4.247-0.623c-0.222-0.033-0.333-0.049-0.434-0.048-0.1 0.001-0.169 0.008-0.267 0.028s-0.225 0.068-0.477 0.163c-1.178 0.441-2.454 0.683-3.787 0.683-0.558 0-1.105-0.042-1.64-0.124M10.175 29.333c3.953 0 7.158-3.283 7.158-7.333s-3.205-7.333-7.158-7.333c-3.953 0-7.158 3.283-7.158 7.333 0 0.814 0.13 1.597 0.369 2.329 0.101 0.309 0.152 0.464 0.168 0.57 0.017 0.11 0.020 0.172 0.014 0.284-0.006 0.107-0.033 0.227-0.086 0.469l-0.815 3.682 3.993-0.545c0.218-0.030 0.327-0.045 0.422-0.044 0.1 0.001 0.153 0.006 0.252 0.026 0.093 0.019 0.232 0.067 0.51 0.165 0.731 0.258 1.516 0.398 2.332 0.398z"></path>
</symbol>
<symbol id="icon_expertise_icon" viewBox="0 0 32 32">
<path fill="none" stroke="#fafafa" style="stroke: var(--color1, #fafafa)" stroke-linejoin="round" stroke-linecap="round" stroke-miterlimit="4" stroke-width="2.6667" d="M26.667 28c0-1.861 0-2.791-0.23-3.548-0.517-1.705-1.851-3.039-3.556-3.556-0.757-0.23-1.687-0.23-3.548-0.23h-6.667c-1.861 0-2.791 0-3.548 0.23-1.705 0.517-3.038 1.851-3.556 3.556-0.23 0.757-0.23 1.687-0.23 3.548"></path>
<path fill="none" stroke="#fafafa" style="stroke: var(--color1, #fafafa)" stroke-linejoin="round" stroke-linecap="round" stroke-miterlimit="4" stroke-width="2.6667" d="M16 16c3.314 0 6-2.686 6-6s-2.686-6-6-6c-3.314 0-6 2.686-6 6s2.686 6 6 6z"></path>
</symbol>
<symbol id="icon-accordion_down" viewBox="0 0 32 32">
<path fill="none" stroke="#fafafa" style="stroke: var(--color1, #fafafa)" stroke-linejoin="miter" stroke-linecap="butt" stroke-miterlimit="4" stroke-width="5.3333" d="M4 8.667l12 12 12-12"></path>
</symbol>
<symbol id="icon-accordion_up" viewBox="0 0 32 32">
<path fill="none" stroke="#fafafa" style="stroke: var(--color1, #fafafa)" stroke-linejoin="miter" stroke-linecap="butt" stroke-miterlimit="4" stroke-width="5.3333" d="M28 23.333l-12-12-12 12"></path>
</symbol>
<symbol id="icon-burger" viewBox="0 0 32 32">
<path fill="none" stroke="#fafafa" style="stroke: var(--color1, #fafafa)" stroke-linejoin="round" stroke-linecap="round" stroke-miterlimit="4" stroke-width="2.6667" d="M2 10.556h28M2 21.444h28"></path>
</symbol>
<symbol id="icon-modal-close" viewBox="0 0 32 32">
<path fill="none" stroke="#fafafa" style="stroke: var(--color1, #fafafa)" stroke-linejoin="round" stroke-linecap="round" stroke-miterlimit="4" stroke-width="2.2857" d="M24 8l-16 16"></path>
<path fill="none" stroke="#fafafa" style="stroke: var(--color1, #fafafa)" stroke-linejoin="round" stroke-linecap="round" stroke-miterlimit="4" stroke-width="2.2857" d="M8 8l16 16"></path>
</symbol>
</defs>
</svg>
