
<svg version="1.0" xmlns="http://www.w3.org/2000/svg"
 width="48.000000pt" height="48.000000pt" viewBox="0 0 48.000000 48.000000"
 preserveAspectRatio="xMidYMid meet">

<g transform="translate(0.000000,48.000000) scale(0.100000,-0.100000)"
fill="#000000" stroke="none">
<path d="M34 446 l-34 -34 0 -166 c0 -97 4 -175 11 -189 22 -49 53 -57 228
-57 94 0 170 4 184 11 50 22 57 53 57 234 l0 167 -34 34 -34 34 -172 0 -172 0
-34 -34z m66 -126 c0 -5 -4 -10 -10 -10 -5 0 -10 5 -10 10 0 6 5 10 10 10 6 0
10 -4 10 -10z m158 -4 c-21 -16 -23 -26 -5 -26 7 0 18 9 25 20 7 11 19 20 27
20 21 0 19 -20 -2 -20 -17 -1 -17 -1 0 -14 15 -12 16 -14 2 -20 -9 -3 -15 -18
-15 -41 0 -19 -4 -35 -10 -35 -5 0 -10 18 -10 40 0 29 -4 40 -15 40 -11 0 -15
-11 -15 -40 0 -22 -4 -40 -10 -40 -5 0 -10 18 -10 40 0 22 -4 40 -10 40 -5 0
-10 -9 -10 -20 0 -16 -7 -20 -36 -20 -31 0 -35 -2 -24 -15 8 -10 21 -13 38 -8
17 4 23 2 18 -6 -4 -6 -21 -11 -37 -11 -22 0 -32 6 -38 23 -14 37 2 62 40 64
19 1 39 2 45 2 7 1 14 10 17 21 3 13 13 20 29 20 21 -1 22 -2 6 -14z m140 -17
c12 0 13 -2 3 -6 -11 -5 -11 -7 0 -14 11 -7 10 -9 -3 -9 -10 0 -18 -6 -18 -12
0 -10 -3 -9 -9 1 -5 7 -14 10 -20 7 -6 -4 -11 -2 -11 3 0 6 6 11 13 12 10 0
10 2 0 6 -7 2 -13 9 -13 14 0 4 7 6 15 3 9 -4 15 0 16 7 0 11 2 11 6 2 2 -7
12 -13 21 -14z m-298 -68 c0 -33 -5 -63 -11 -66 -15 -10 -15 -7 -11 63 5 79
22 81 22 3z"/>
<path d="M147 274 c-13 -13 -7 -24 14 -24 11 0 19 5 17 12 -5 14 -22 21 -31
12z"/>
</g>
</svg>
