<?xml version="1.0" standalone="no"?>
<!DOCTYPE svg PUBLIC "-//W3C//DTD SVG 20010904//EN"
 "http://www.w3.org/TR/2001/REC-SVG-20010904/DTD/svg10.dtd">
<svg version="1.0" xmlns="http://www.w3.org/2000/svg"
 width="40.000000pt" height="40.000000pt" viewBox="0 0 40.000000 40.000000"
 preserveAspectRatio="xMidYMid meet">

<g transform="translate(0.000000,40.000000) scale(0.100000,-0.100000)"
fill="#000000" stroke="none">
<path d="M87 351 c10 -18 30 -44 46 -56 15 -13 27 -28 27 -34 0 -19 -67 -12
-104 10 -46 27 -47 18 -2 -10 20 -13 50 -21 75 -21 l43 0 -31 -25 c-16 -14
-51 -33 -76 -42 -25 -8 -44 -17 -42 -19 2 -2 23 3 47 11 23 8 44 15 46 15 12
0 1 -37 -15 -54 -10 -12 -21 -41 -25 -66 l-5 -45 12 41 c7 23 18 49 26 58 13
16 16 15 38 -13 33 -42 74 -42 105 -1 20 28 23 29 39 14 10 -9 20 -26 22 -38
4 -21 4 -21 6 0 0 11 -8 29 -19 39 -11 10 -20 29 -20 42 0 27 -3 27 50 8 24
-8 45 -13 47 -11 2 2 -17 11 -42 19 -25 9 -60 28 -76 42 l-31 25 43 0 c36 0
109 31 109 47 0 2 -15 -5 -34 -16 -32 -20 -106 -29 -106 -13 0 5 14 21 31 38
17 16 38 43 46 59 17 34 9 27 -31 -27 -32 -45 -41 -47 -51 -10 -4 15 -10 21
-12 15 -6 -17 -43 -17 -44 0 0 6 -6 -1 -14 -17 l-12 -29 -24 24 c-13 13 -32
35 -42 49 -17 24 -17 24 0 -9z m156 -136 c26 -11 31 -49 12 -89 -29 -60 -81
-60 -110 0 -9 20 -14 46 -11 58 9 37 59 51 109 31z"/>
<path d="M321 34 c0 -11 3 -14 6 -6 3 7 2 16 -1 19 -3 4 -6 -2 -5 -13z"/>
</g>
</svg>
